<?xml version="1.0" standalone="no"?><svg xmlns="http://www.w3.org/2000/svg" viewBox="0 0 1440 320"><path fill="#ff5500" fill-opacity="1" d="M0,320L13.3,314.7C26.7,309,53,299,80,256C106.7,213,133,139,160,101.3C186.7,64,213,64,240,106.7C266.7,149,293,235,320,234.7C346.7,235,373,149,400,101.3C426.7,53,453,43,480,74.7C506.7,107,533,181,560,218.7C586.7,256,613,256,640,256C666.7,256,693,256,720,261.3C746.7,267,773,277,800,272C826.7,267,853,245,880,218.7C906.7,192,933,160,960,165.3C986.7,171,1013,213,1040,213.3C1066.7,213,1093,171,1120,176C1146.7,181,1173,235,1200,266.7C1226.7,299,1253,309,1280,266.7C1306.7,224,1333,128,1360,80C1386.7,32,1413,32,1427,32L1440,32L1440,320L1426.7,320C1413.3,320,1387,320,1360,320C1333.3,320,1307,320,1280,320C1253.3,320,1227,320,1200,320C1173.3,320,1147,320,1120,320C1093.3,320,1067,320,1040,320C1013.3,320,987,320,960,320C933.3,320,907,320,880,320C853.3,320,827,320,800,320C773.3,320,747,320,720,320C693.3,320,667,320,640,320C613.3,320,587,320,560,320C533.3,320,507,320,480,320C453.3,320,427,320,400,320C373.3,320,347,320,320,320C293.3,320,267,320,240,320C213.3,320,187,320,160,320C133.3,320,107,320,80,320C53.3,320,27,320,13,320L0,320Z"></path></svg>